<svg xmlns:rdf="http://www.w3.org/1999/02/22-rdf-syntax-ns#" xmlns:dc="http://purl.org/dc/elements/1.1/" xmlns:cc="http://creativecommons.org/ns#" xmlns:sodipodi="http://sodipodi.sourceforge.net/DTD/sodipodi-0.dtd" xmlns:inkscape="http://www.inkscape.org/namespaces/inkscape" xmlns:svg="http://www.w3.org/2000/svg" xmlns="http://www.w3.org/2000/svg" xmlns:xlink="http://www.w3.org/1999/xlink" version="1.1" x="0px" y="0px" viewBox="0 0 800 800" enable-background="new 0 0 800 800" xml:space="preserve" style="max-width:100%" height="100%"><g style="" fill="currentColor"><path d="M400.008,623.476c123.212,0,223.46-100.24,223.46-223.476S523.22,176.524,400.008,176.524   c-123.228,0-223.491,100.24-223.491,223.476S276.78,623.476,400.008,623.476z M400.008,208.837   c105.394,0,191.155,85.762,191.155,191.163c0,105.4-85.762,191.162-191.155,191.162C294.584,591.162,208.83,505.4,208.83,400   C208.83,294.599,294.584,208.837,400.008,208.837z" style="" fill="currentColor"></path><path d="M118.401,629.106l54.336-18.938c5.477,5.925,11.177,11.633,17.078,17.109l-18.914,54.344   c-2.561,7.328,0.463,15.412,7.181,19.3l72.286,41.731c6.726,3.872,15.242,2.422,20.302-3.44l37.535-43.482   c7.714,2.376,15.536,4.466,23.427,6.248l10.776,56.465c1.45,7.621,8.1,13.121,15.852,13.121h83.471   c7.761,0,14.409-5.5,15.859-13.121l10.784-56.465c7.884-1.782,15.705-3.872,23.403-6.248l37.566,43.498   c5.061,5.862,13.592,7.313,20.303,3.425l72.278-41.747c6.711-3.864,9.719-11.979,7.188-19.292l-18.944-54.352   c5.908-5.461,11.632-11.169,17.094-17.094l54.366,18.938c7.344,2.554,15.396-0.471,19.3-7.174l41.731-72.285   c3.872-6.719,2.422-15.243-3.456-20.311l-43.475-37.543c2.376-7.698,4.475-15.528,6.248-23.411l56.465-10.776   c7.621-1.45,13.129-8.107,13.129-15.867v-83.471c0-7.745-5.508-14.394-13.129-15.86l-56.465-10.768   c-1.773-7.899-3.872-15.721-6.248-23.427l43.49-37.551c5.878-5.068,7.313-13.584,3.44-20.303l-41.747-72.286   c-3.888-6.703-11.94-9.719-19.3-7.174l-54.351,18.93c-5.462-5.917-11.17-11.632-17.094-17.078l18.944-54.359   c2.562-7.336-0.463-15.436-7.188-19.308l-72.294-41.731c-6.711-3.88-15.227-2.43-20.287,3.44l-37.566,43.475   c-7.683-2.376-15.52-4.458-23.403-6.233l-10.769-56.473c-1.45-7.621-8.114-13.128-15.875-13.128h-83.471   c-7.752,0-14.417,5.531-15.875,13.128l-10.753,56.473c-7.891,1.774-15.713,3.857-23.427,6.233l-37.535-43.475   c-5.06-5.87-13.576-7.32-20.302-3.44l-72.286,41.731c-6.718,3.872-9.742,11.987-7.181,19.308l18.914,54.359   c-5.901,5.446-11.602,11.162-17.078,17.078l-54.352-18.93c-7.328-2.545-15.427,0.471-19.3,7.174L57.347,250.36   c-3.864,6.719-2.43,15.235,3.433,20.303l43.498,37.551c-2.399,7.706-4.481,15.543-6.256,23.427l-56.465,10.768   c-7.621,1.466-13.129,8.115-13.129,15.86l0.016,83.471c0,7.76,5.508,14.417,13.129,15.867l56.449,10.776   c1.774,7.883,3.857,15.713,6.256,23.411l-43.498,37.543c-5.862,5.06-7.313,13.599-3.433,20.303l41.739,72.293   C102.966,628.636,111.058,631.66,118.401,629.106z M133.543,509.204c5.037-4.336,6.888-11.309,4.698-17.572   c-4.551-12.998-8.153-26.489-10.707-40.089c-1.234-6.533-6.325-11.647-12.858-12.89l-53.927-10.282l-0.015-56.742l53.942-10.283   c6.518-1.242,11.625-6.356,12.843-12.89c2.569-13.6,6.163-27.099,10.707-40.104c2.191-6.256,0.339-13.221-4.682-17.557   L92.005,254.95l28.379-49.137l51.906,18.058c6.264,2.198,13.222,0.316,17.541-4.698c9.01-10.46,18.876-20.326,29.328-29.328   c5.014-4.319,6.896-11.285,4.721-17.541l-18.081-51.906l49.152-28.387l35.838,41.539c4.335,5.021,11.324,6.881,17.572,4.683   c12.998-4.544,26.489-8.154,40.089-10.699c6.533-1.219,11.64-6.325,12.89-12.851l10.282-53.935h56.75l10.29,53.935   c1.234,6.526,6.341,11.632,12.883,12.851c13.622,2.561,27.091,6.155,40.096,10.699c6.248,2.198,13.222,0.339,17.557-4.683   l35.854-41.539l49.137,28.364l-18.05,51.914c-2.191,6.271-0.309,13.237,4.705,17.556c10.429,9.002,20.318,18.868,29.328,29.328   c4.335,5.014,11.293,6.896,17.541,4.698l51.883-18.058l28.387,49.137l-41.531,35.846c-5.029,4.335-6.881,11.316-4.69,17.572   c4.552,12.99,8.161,26.474,10.723,40.088c1.234,6.534,6.325,11.648,12.836,12.89l53.935,10.283v56.742l-53.935,10.282   c-6.511,1.242-11.602,6.356-12.836,12.89c-2.576,13.615-6.171,27.106-10.723,40.089c-2.19,6.264-0.339,13.236,4.69,17.572   l41.531,35.854l-28.372,49.129l-51.913-18.059c-6.248-2.19-13.206-0.315-17.541,4.698c-8.994,10.46-18.868,20.325-29.313,29.328   c-5.045,4.319-6.896,11.285-4.705,17.549l18.05,51.913l-49.121,28.371l-35.869-41.538c-4.335-5.015-11.309-6.896-17.557-4.683   c-13.005,4.544-26.474,8.153-40.096,10.715c-6.542,1.227-11.648,6.325-12.883,12.835l-10.29,53.935h-56.727l-10.291-53.919   c-1.25-6.525-6.356-11.624-12.89-12.851c-13.63-2.562-27.122-6.171-40.104-10.715c-1.728-0.617-3.556-0.918-5.338-0.918   c-4.597,0-9.094,1.99-12.218,5.601l-35.854,41.538l-49.152-28.371l18.081-51.906c2.175-6.256,0.309-13.213-4.721-17.556   c-10.421-8.987-20.303-18.853-29.328-29.328c-4.319-5.014-11.277-6.889-17.541-4.698l-51.898,18.059l-28.387-49.121   L133.543,509.204z" style="" fill="currentColor"></path></g></svg>