<svg xmlns="http://www.w3.org/2000/svg" xmlns:xlink="http://www.w3.org/1999/xlink" version="1.1" x="0px" y="0px" viewBox="0 0 52 52" enable-background="new 0 0 52 52" xml:space="preserve" style="max-width:100%" height="100%"><g style="" fill="currentColor"><g style="" fill="currentColor"><g style="" fill="currentColor"><path d="M26.098877,50.0456543c-1.2548828,0-2.0830078-1.2255859-2.8837891-2.4106445     c-0.3364258-0.4975586-0.9619141-1.4233398-1.2524414-1.5219727c-0.2763672-0.0083008-1.230957,0.5883789-1.7368164,0.9155273     c-1.2026367,0.7768555-2.4482422,1.5791016-3.6005859,1.090332c-1.1254883-0.4775391-1.3925781-1.8754883-1.6508789-3.2270508     c-0.1123047-0.5893555-0.3007813-1.5756836-0.5097656-1.7763672c-0.2387695-0.1015625-1.230957,0.0947266-1.8237305,0.2099609     c-1.3549805,0.2661133-2.7529297,0.5400391-3.6181641-0.3203125c-0.871582-0.8681641-0.59375-2.2763672-0.324707-3.6376953     c0.1176758-0.5961914,0.3144531-1.59375,0.1933594-1.8608398c-0.1845703-0.1865234-1.1904297-0.3813477-1.7910156-0.4980469     c-1.3662109-0.2651367-2.7783203-0.5390625-3.2568359-1.668457c-0.4873047-1.1503906,0.3208008-2.3779297,1.1020508-3.5649414     c0.3476563-0.527832,0.9291992-1.4111328,0.9121094-1.7133789c-0.097168-0.262207-0.9790039-0.8525391-1.5058594-1.2050781     c-1.1821289-0.7910156-2.4042969-1.609375-2.4042969-2.8564453c0-1.2539063,1.2314453-2.0786133,2.4228516-2.8764648     c0.4985352-0.3339844,1.4262695-0.9555664,1.527832-1.2446289c0.0161133-0.2851563-0.5917969-1.2182617-0.918457-1.7192383     c-0.7817383-1.199707-1.590332-2.4399414-1.0961914-3.5942383c0.480957-1.1210938,1.8833008-1.3867188,3.2397461-1.6435547     c0.5927734-0.1123047,1.5854492-0.300293,1.7885742-0.5097656c0.0976563-0.2338867-0.0966797-1.2177734-0.2128906-1.8056641     c-0.2670898-1.3510742-0.543457-2.7480469,0.3237305-3.6113281c0.8696289-0.8637695,2.2797852-0.5883789,3.6450195-0.3212891     c0.6005859,0.1176758,1.6108398,0.3178711,1.8759766,0.1914063c0.1884766-0.1835938,0.3842773-1.1826172,0.5009766-1.7797852     c0.2666016-1.3613281,0.5424805-2.7685547,1.6757813-3.2441406c1.1503906-0.4848633,2.3813477,0.3203125,3.5712891,1.0966797     c0.5327148,0.347168,1.421875,0.9428711,1.7275391,0.9091797c0.2666016-0.0952148,0.8837891-1.0092773,1.2158203-1.5004883     c0.7944336-1.1762695,1.6157227-2.3925781,2.8637695-2.3925781c1.2548828,0,2.0830078,1.2255859,2.8837891,2.4106445     c0.3359375,0.4975586,0.9614258,1.4233398,1.2519531,1.5214844c0.2856445,0.0175781,1.230957-0.5883789,1.7368164-0.9150391     c1.203125-0.7763672,2.4477539-1.5800781,3.6005859-1.0898438c1.125,0.4775391,1.3925781,1.8754883,1.6508789,3.2270508     c0.112793,0.5893555,0.3012695,1.5756836,0.5102539,1.7763672c0.2387695,0.1020508,1.2304688-0.0942383,1.8237305-0.2099609     c1.3540039-0.2651367,2.7539063-0.5395508,3.6181641,0.3203125c0.871582,0.8681641,0.59375,2.2758789,0.324707,3.6376953     c-0.1176758,0.5961914-0.3144531,1.59375-0.1933594,1.8603516c0.1850586,0.1870117,1.1899414,0.3823242,1.7905273,0.4985352     c1.3662109,0.2651367,2.7788086,0.5395508,3.2568359,1.6689453c0.4873047,1.1499023-0.3208008,2.3774414-1.1020508,3.5644531     c-0.3476563,0.527832-0.9291992,1.4111328-0.9121094,1.7133789c0.0756836,0.3144531,1.0112305,1.4301758,3.1884766,3.0288086     c0.3286133,0.2416992,0.5244141,0.6274414,0.5244141,1.0327148s-0.1958008,0.7910156-0.5234375,1.0317383     c-2.190918,1.6098633-3.1381836,2.7348633-3.2260742,3.0742188c-0.0136719,0.3100586,0.5898438,1.2353516,0.9145508,1.7338867     c0.7822266,1.199707,1.5908203,2.4404297,1.0957031,3.5947266c-0.4799805,1.1210938-1.8828125,1.3867188-3.2392578,1.6435547     c-0.5927734,0.1123047-1.5849609,0.300293-1.7880859,0.5097656c-0.0976563,0.234375,0.0966797,1.21875,0.2128906,1.8066406     c0.2670898,1.3505859,0.5429688,2.7470703-0.3237305,3.6098633c-0.8681641,0.8652344-2.2802734,0.5898438-3.6450195,0.3217773     c-0.6005859-0.1166992-1.6088867-0.3139648-1.8764648-0.1914063c-0.1884766,0.1835938-0.3837891,1.1826172-0.5009766,1.7792969     c-0.2666016,1.3613281-0.5419922,2.769043-1.6762695,3.2451172c-1.1464844,0.4819336-2.3793945-0.3208008-3.5698242-1.0966797     c-0.4980469-0.3251953-1.4467773-0.9443359-1.7285156-0.909668c-0.2661133,0.0952148-0.8837891,1.0092773-1.215332,1.5004883     C28.1682129,48.8293457,27.3469238,50.0456543,26.098877,50.0456543z M21.9699707,44.1159668     c0.1333008,0,0.2666016,0.0126953,0.3999023,0.0395508c1.0522461,0.2143555,1.7568359,1.2563477,2.5024414,2.3598633     c0.3398438,0.5029297,0.9726563,1.4394531,1.2670898,1.5351563c0.206543-0.0966797,0.8305664-1.0205078,1.1660156-1.5166016     c0.7407227-1.0966797,1.4399414-2.1323242,2.4882813-2.3432617c1.0488281-0.2109375,2.0957031,0.4726563,3.2055664,1.1967773     c0.503418,0.328125,1.4384766,0.9321289,1.7456055,0.9155273c0.1293945-0.1616211,0.3349609-1.2099609,0.4448242-1.7729492     c0.2387695-1.2172852,0.4853516-2.4765625,1.3642578-3.0649414c0.8769531-0.5874023,2.0834961-0.3505859,3.3598633-0.1010742     c0.5327148,0.1044922,1.4951172,0.2929688,1.8339844,0.2104492c0.0776367-0.3310547-0.1015625-1.2368164-0.2109375-1.7919922     c-0.2392578-1.2094727-0.4863281-2.4604492,0.1054688-3.3320313c0.5898438-0.8691406,1.7895508-1.0966797,3.0595703-1.3369141     c0.5634766-0.1069336,1.4838867-0.28125,1.7592773-0.4790039c-0.0400391-0.3535156-0.6069336-1.2231445-0.9189453-1.7021484     c-0.7280273-1.1166992-1.4155273-2.1713867-1.199707-3.2231445l0,0c0.1923828-0.9375,1.2797852-2.1835938,3.2353516-3.7089844     c-1.9355469-1.5102539-3.0107422-2.7446289-3.2001953-3.675293c-0.2124023-1.0478516,0.4750977-2.0927734,1.203125-3.1992188     c0.3100586-0.4711914,0.8725586-1.3256836,0.9160156-1.675293c-0.2753906-0.203125-1.2094727-0.3842773-1.7807617-0.4951172     c-1.277832-0.2480469-2.484375-0.4819336-3.0751953-1.355957c-0.5922852-0.8764648-0.34375-2.1357422-0.1030273-3.3540039     c0.1040039-0.5273438,0.2924805-1.4804688,0.2119141-1.8178711c-0.3320313-0.0756836-1.2480469,0.1000977-1.8085938,0.2099609     c-1.2685547,0.2485352-2.465332,0.4829102-3.3383789-0.1035156c-0.8735352-0.5874023-1.112793-1.8393555-1.3442383-3.0498047     c-0.1137695-0.5947266-0.3041992-1.5893555-0.5166016-1.7905273c-0.2216797,0.0131836-1.1738281,0.6279297-1.6855469,0.9580078     c-1.1196289,0.7236328-2.1806641,1.4033203-3.2290039,1.1928711c-1.0522461-0.2138672-1.7563477-1.2563477-2.5019531-2.3598633     c-0.340332-0.5029297-0.9726563-1.4394531-1.2670898-1.5351563c-0.206543,0.0966797-0.8310547,1.0205078-1.1660156,1.5166016     c-0.7407227,1.0966797-1.4404297,2.1328125-2.4887695,2.34375c-1.043457,0.2089844-2.0952148-0.4726563-3.2041016-1.1962891     c-0.5039063-0.3286133-1.4472656-0.9360352-1.7470703-0.9160156c-0.1293945,0.1616211-0.3344727,1.2094727-0.4448242,1.7724609     c-0.2382813,1.2177734-0.4853516,2.4770508-1.3642578,3.0654297c-0.8764648,0.5883789-2.0820313,0.3515625-3.3598633,0.1010742     c-0.5322266-0.1040039-1.4931641-0.293457-1.8339844-0.2104492c-0.0776367,0.3310547,0.1015625,1.2373047,0.2114258,1.7924805     c0.2387695,1.2094727,0.4858398,2.4599609-0.1049805,3.331543c-0.5908203,0.8691406-1.7905273,1.0966797-3.0605469,1.3369141     c-0.5634766,0.1069336-1.4833984,0.28125-1.7592773,0.4785156c0.0405273,0.3540039,0.6069336,1.2231445,0.9194336,1.7026367     c0.7280273,1.1166992,1.4155273,2.1713867,1.1992188,3.2231445c-0.215332,1.050293-1.2626953,1.7519531-2.371582,2.4941406     c-0.5039063,0.3378906-1.4423828,0.9658203-1.5410156,1.2592773c0.0996094,0.1977539,1.0249023,0.8173828,1.5224609,1.1499023     c1.1015625,0.737793,2.1425781,1.4345703,2.3549805,2.4814453c0.2124023,1.0473633-0.4750977,2.0922852-1.203125,3.1987305     c-0.3100586,0.4711914-0.8725586,1.3256836-0.9160156,1.675293c0.2753906,0.2026367,1.2094727,0.3842773,1.7807617,0.4951172     c1.277832,0.2480469,2.4848633,0.4819336,3.0756836,1.355957c0.5917969,0.8769531,0.3432617,2.1357422,0.1030273,3.3535156     c-0.1040039,0.5273438-0.2924805,1.480957-0.2119141,1.8183594c0.3320313,0.0761719,1.2470703-0.1000977,1.8081055-0.2099609     c1.2685547-0.2485352,2.4672852-0.4829102,3.3383789,0.1035156c0.8740234,0.5874023,1.1132813,1.8393555,1.3447266,3.0498047     c0.1132813,0.5947266,0.3037109,1.5893555,0.5161133,1.7905273c0.2216797-0.0131836,1.1738281-0.6279297,1.6855469-0.9584961     C20.1188965,44.717041,21.0495605,44.1159668,21.9699707,44.1159668z" style="" fill="currentColor"></path></g></g><g style="" fill="currentColor"><g style="" fill="currentColor"><path d="M33.7907715,36.8439941l-7.7910156-4.0605469l-7.7910156,4.0605469l1.4882813-8.6015625l-6.3139648-6.1000977     l8.7246094-1.2568359l3.8920898-7.8173828l3.8920898,7.8173828l8.7246094,1.2568359l-6.3139648,6.1000977L33.7907715,36.8439941z      M25.9997559,30.5285645l5.1308594,2.6738281l-0.9794922-5.6621094l4.1401367-4.0004883l-5.7226563-0.8242188     l-2.5688477-5.1601563l-2.5688477,5.1601563l-5.7226563,0.8242188l4.1401367,4.0004883l-0.9794922,5.6621094     L25.9997559,30.5285645z" style="" fill="currentColor"></path></g></g></g></svg>