<svg xmlns="http://www.w3.org/2000/svg" xmlns:xlink="http://www.w3.org/1999/xlink" version="1.1" x="0px" y="0px" viewBox="0 0 100 100" enable-background="new 0 0 100 100" xml:space="preserve" style="max-width:100%" height="100%"><g style="" fill="currentColor"><path fill="currentColor" d="M78,46c4.2,0,7.8-0.9,9.2-2.2c0.7-0.7,1-1.5,1-2.5c0-9.1-5.9-14.6-10.2-14.6c-4.2,0-10.2,5.6-10.2,14.6   c0,1,0.3,1.8,1,2.6C70.2,45.1,73.8,46,78,46z M88.2,29.4c2.2,3.4,3.5,7.9,3.5,11.9c0,2-0.7,3.7-2.2,5.2c-2.2,2.1-6.5,3.3-11.7,3.3   c-5.3,0-9.5-1.2-11.6-3.3c-1.4-1.5-2.2-3.2-2.2-5.2c0-4,1.3-8.5,3.6-11.9c1-1.6,2.3-3,3.8-4c0.1-0.2,0.2-0.3,0.2-0.5   c0.1-0.4,0-0.7-0.3-1c-1.4-1.5-2.2-3.7-2.2-5.9c0-4.8,3.9-8.8,8.8-8.8H78c4.8,0,8.8,3.9,8.8,8.8c0,2.2-0.8,4.3-2.3,5.9   c-0.2,0.3-0.3,0.6-0.2,0.9c0,0.3,0.1,0.4,0.2,0.6C86,26.4,87.2,27.8,88.2,29.4z M83.2,17.9c0-2.9-2.4-5.3-5.3-5.3   c-2.9,0-5.2,2.4-5.2,5.3s2.3,5.3,5.2,5.3C80.9,23.1,83.2,20.8,83.2,17.9z" style=""></path><path fill="currentColor" d="M24.3,9.2c4.8,0,8.8,3.9,8.8,8.8c0,2.2-0.8,4.3-2.3,5.9c-0.2,0.3-0.3,0.6-0.2,0.9c0,0.3,0.1,0.4,0.2,0.6   c1.5,1.1,2.7,2.4,3.8,4c2.2,3.4,3.5,7.9,3.5,11.9c0,2-0.7,3.7-2.2,5.2c-2.2,2.1-6.5,3.3-11.7,3.3c-5.3,0-9.5-1.2-11.6-3.3   c-1.5-1.5-2.2-3.2-2.2-5.2c0-4,1.3-8.5,3.6-11.9c1-1.6,2.3-3,3.7-4c0.1-0.2,0.2-0.3,0.2-0.5c0-0.4,0-0.7-0.3-1   c-1.4-1.5-2.2-3.7-2.2-5.9c0-4.8,3.9-8.8,8.8-8.8H24.3z M29.5,17.9c0-2.9-2.4-5.3-5.3-5.3c-2.9,0-5.2,2.4-5.2,5.3s2.3,5.3,5.2,5.3   C27.2,23.1,29.5,20.8,29.5,17.9z M33.4,43.8c0.7-0.7,1-1.5,1-2.5c0-9.1-5.9-14.6-10.2-14.6c-4.2,0-10.2,5.6-10.2,14.6   c0,1,0.3,1.8,1,2.6c1.4,1.3,4.9,2.1,9.1,2.1C28.4,46,32,45.1,33.4,43.8z" style=""></path></g><g style="" fill="currentColor"><path fill="currentColor" d="M42.6,30.5c6,0,12,0,18,0c2.4,0,2.4-3.8,0-3.8c-6,0-12,0-18,0C40.2,26.8,40.2,30.5,42.6,30.5L42.6,30.5z" style=""></path></g><g style="" fill="currentColor"><path fill="currentColor" d="M51.5,51.9h0.1c4.8,0,8.8,3.9,8.8,8.8c0,2.2-0.8,4.3-2.3,5.9c-0.2,0.3-0.3,0.6-0.2,0.9   c0,0.3,0.1,0.4,0.2,0.6c1.5,1.1,2.7,2.4,3.8,4c2.2,3.4,3.5,7.8,3.5,11.9c0,2-0.7,3.7-2.2,5.2c-2.2,2.1-6.5,3.3-11.7,3.3   c-5.3,0-9.5-1.2-11.6-3.3c-1.5-1.4-2.2-3.2-2.2-5.2c0-4,1.3-8.5,3.5-11.9c1-1.6,2.3-3,3.8-4c0.1-0.2,0.2-0.3,0.2-0.5   c0-0.4,0-0.7-0.3-1c-1.4-1.6-2.2-3.7-2.2-5.9C42.7,55.9,46.7,51.9,51.5,51.9z M51.6,55.4c-2.9,0-5.2,2.4-5.2,5.2   c0,2.9,2.3,5.3,5.2,5.3c2.9,0,5.3-2.3,5.3-5.3C56.8,57.7,54.5,55.4,51.6,55.4z M60.8,86.5c0.7-0.7,1-1.5,1-2.5   c0-9.1-5.9-14.6-10.2-14.6c-4.2,0-10.2,5.6-10.2,14.6c0,1,0.3,1.8,1,2.6c1.4,1.3,4.9,2.1,9.1,2.1C55.7,88.7,59.3,87.9,60.8,86.5z" style=""></path><g style="" fill="currentColor"><path fill="currentColor" d="M22,56.7c4.2,4.2,8.5,8.5,12.7,12.7c1.7,1.7,4.4-0.9,2.7-2.7c-4.2-4.2-8.5-8.5-12.7-12.7    C23,52.4,20.3,55,22,56.7L22,56.7z" style=""></path></g><g style="" fill="currentColor"><path fill="currentColor" d="M78.5,54.1c-4.2,4.2-8.5,8.5-12.7,12.7c-1.7,1.7,0.9,4.4,2.7,2.7c4.2-4.2,8.5-8.5,12.7-12.7    C82.9,55,80.2,52.4,78.5,54.1L78.5,54.1z" style=""></path></g></g></svg>