<svg xmlns="http://www.w3.org/2000/svg" xmlns:xlink="http://www.w3.org/1999/xlink" version="1.1" x="0px" y="0px" viewBox="0 0 100 100" enable-background="new 0 0 100 100" xml:space="preserve" style="max-width:100%" height="100%"><g style="" fill="currentColor"><g style="" fill="currentColor"><path fill="currentColor" d="M87.039,72.974c-0.229,0-0.459-0.02-0.693-0.056l-36.816-6.761l0.433-2.35l36.787,6.755    c0.772,0.126,1.54-0.244,1.63-0.81l5.938-37.386c0.051-0.32-0.136-0.589-0.251-0.721c-0.25-0.286-0.643-0.49-1.077-0.559    l-13.979-1.937l0.327-2.366l14.004,1.94c1.015,0.161,1.901,0.639,2.521,1.347c0.667,0.761,0.964,1.734,0.814,2.671l-5.938,37.385    C90.473,71.799,88.883,72.974,87.039,72.974z" style=""></path></g><g style="" fill="currentColor"><path fill="currentColor" d="M18.756,27.129c-0.063,0-0.126-0.005-0.189-0.014c-0.651-0.104-1.096-0.716-0.992-1.368l0.862-5.431    c0.149-0.938,0.732-1.771,1.602-2.287c0.812-0.482,1.804-0.661,2.791-0.504l33.514,5.382c0.65,0.104,1.094,0.716,0.99,1.368    c-0.104,0.651-0.722,1.097-1.368,0.989l-33.514-5.38c-0.431-0.066-0.865,0.003-1.192,0.198c-0.151,0.089-0.412,0.289-0.463,0.606    l-0.863,5.432C19.84,26.709,19.333,27.129,18.756,27.129z" style=""></path></g></g><g style="" fill="currentColor"><g style="" fill="currentColor"><path fill="currentColor" d="M77.979,23.651c0.109,0,0.193,0.021,0.249,0.042l2.99,37.329c-0.063,0.036-0.167,0.078-0.312,0.089    L9.713,66.813c-0.024,0.002-0.048,0.003-0.073,0.003c-0.109,0-0.192-0.02-0.248-0.041L6.404,29.446    c0.062-0.037,0.165-0.079,0.309-0.09l71.193-5.701C77.931,23.653,77.955,23.651,77.979,23.651 M77.979,21.263    c-0.087,0-0.174,0.004-0.263,0.011L6.522,26.976c-1.489,0.12-2.615,1.22-2.515,2.458l3.021,37.733    c0.095,1.166,1.238,2.039,2.613,2.039c0.087,0,0.176-0.005,0.264-0.011l71.194-5.702c1.488-0.119,2.614-1.22,2.516-2.46    L80.593,23.3C80.499,22.134,79.354,21.263,77.979,21.263L77.979,21.263z" style=""></path></g><g style="" fill="currentColor"><g style="" fill="currentColor"><path fill="currentColor" d="M45.01,46.75l0.207,2.585c0.968-0.271,1.387-0.869,1.337-1.485C46.502,47.213,45.88,46.952,45.01,46.75z" style=""></path></g><g style="" fill="currentColor"><path fill="currentColor" d="M57.878,44.108c-0.623-7.77-7.426-13.562-15.195-12.941c-7.768,0.623-13.562,7.424-12.939,15.194     c0.622,7.769,7.425,13.562,15.194,12.939C52.705,58.679,58.499,51.876,57.878,44.108z M45.413,51.786l0.139,1.736l-1.814,0.145     l-0.139-1.737c-2.039-0.011-3.586-0.663-4.732-1.639l1.333-2.264c0.774,0.697,1.89,1.286,3.2,1.415l-0.239-2.991     c-2.027-0.323-4.247-0.902-4.458-3.526c-0.156-1.949,1.255-3.731,3.838-4.21l-0.145-1.794l1.814-0.146l0.146,1.834     c1.578,0.048,2.954,0.521,4.075,1.401l-1.36,2.167c-0.746-0.58-1.628-0.918-2.513-1.061l0.214,2.663     c2.046,0.341,4.346,0.933,4.558,3.576C49.502,49.497,48.226,51.268,45.413,51.786z" style=""></path></g><g style="" fill="currentColor"><path fill="currentColor" d="M41.503,42.488c0.045,0.559,0.608,0.805,1.419,0.993l-0.187-2.336     C41.896,41.33,41.451,41.831,41.503,42.488z" style=""></path></g></g></g><g style="" fill="currentColor"><g style="" fill="currentColor"><path fill="currentColor" d="M23.181,80.764c-5.092,0-7.834-1.021-8.004-1.087c-0.138-0.053-0.229-0.184-0.229-0.331v-3.145    c0-0.198,0.159-0.357,0.356-0.357s0.356,0.159,0.356,0.357v2.888c1.199,0.379,7.065,1.949,16.735-0.034v-2.854    c0-0.198,0.159-0.357,0.356-0.357c0.196,0,0.355,0.159,0.355,0.357v3.145c0,0.167-0.118,0.313-0.282,0.348    C29.015,80.496,25.789,80.764,23.181,80.764z" style=""></path></g><g style="" fill="currentColor"><path fill="currentColor" d="M24.028,77.803c-1.517,0-9.08-0.076-9.08-1.602c0-1.526,7.563-1.604,9.08-1.604    c1.516,0,9.08,0.078,9.08,1.604C33.107,77.727,25.544,77.803,24.028,77.803z M15.735,76.201c0.631,0.389,3.696,0.891,8.293,0.891    s7.662-0.502,8.293-0.891c-0.631-0.39-3.696-0.891-8.293-0.891S16.366,75.812,15.735,76.201z" style=""></path></g><g style="" fill="currentColor"><path fill="currentColor" d="M16.47,80.013c-0.172,0-0.312-0.141-0.312-0.312v-2.88c0-0.171,0.14-0.312,0.312-0.312    c0.172,0,0.312,0.141,0.312,0.312v2.88C16.781,79.872,16.642,80.013,16.47,80.013z" style=""></path></g><g style="" fill="currentColor"><path fill="currentColor" d="M17.742,80.087c-0.172,0-0.312-0.141-0.312-0.312v-2.597c0-0.173,0.139-0.312,0.312-0.312    c0.172,0,0.312,0.14,0.312,0.312v2.597C18.054,79.946,17.914,80.087,17.742,80.087z" style=""></path></g><g style="" fill="currentColor"><path fill="currentColor" d="M19.015,80.368c-0.172,0-0.312-0.14-0.312-0.312v-2.608c0-0.173,0.14-0.312,0.312-0.312    s0.312,0.14,0.312,0.312v2.608C19.326,80.229,19.187,80.368,19.015,80.368z" style=""></path></g><g style="" fill="currentColor"><path fill="currentColor" d="M20.287,80.368c-0.172,0-0.311-0.14-0.311-0.312v-2.608c0-0.173,0.139-0.312,0.311-0.312    c0.173,0,0.312,0.14,0.312,0.312v2.608C20.599,80.229,20.459,80.368,20.287,80.368z" style=""></path></g><g style="" fill="currentColor"><path fill="currentColor" d="M21.559,80.636c-0.172,0-0.312-0.139-0.312-0.311v-2.878c0-0.173,0.14-0.312,0.312-0.312    c0.173,0,0.312,0.14,0.312,0.312v2.878C21.871,80.497,21.732,80.636,21.559,80.636z" style=""></path></g><g style="" fill="currentColor"><path fill="currentColor" d="M22.832,80.636c-0.172,0-0.312-0.139-0.312-0.311v-2.878c0-0.173,0.14-0.312,0.312-0.312    c0.172,0,0.312,0.14,0.312,0.312v2.878C23.144,80.497,23.004,80.636,22.832,80.636z" style=""></path></g><g style="" fill="currentColor"><path fill="currentColor" d="M24.105,80.636c-0.171,0-0.311-0.139-0.311-0.311v-2.878c0-0.173,0.14-0.312,0.311-0.312    c0.172,0,0.312,0.14,0.312,0.312v2.878C24.417,80.497,24.277,80.636,24.105,80.636z" style=""></path></g><g style="" fill="currentColor"><path fill="currentColor" d="M25.378,80.636c-0.172,0-0.312-0.139-0.312-0.311v-2.878c0-0.173,0.14-0.312,0.312-0.312    c0.172,0,0.312,0.14,0.312,0.312v2.878C25.69,80.497,25.551,80.636,25.378,80.636z" style=""></path></g><g style="" fill="currentColor"><path fill="currentColor" d="M26.651,80.586c-0.172,0-0.312-0.141-0.312-0.312v-2.826c0-0.173,0.14-0.312,0.312-0.312    c0.172,0,0.312,0.14,0.312,0.312v2.826C26.963,80.445,26.823,80.586,26.651,80.586z" style=""></path></g><g style="" fill="currentColor"><path fill="currentColor" d="M27.923,80.368c-0.172,0-0.311-0.14-0.311-0.312v-2.608c0-0.173,0.139-0.312,0.311-0.312    c0.172,0,0.312,0.14,0.312,0.312v2.608C28.235,80.229,28.096,80.368,27.923,80.368z" style=""></path></g><g style="" fill="currentColor"><path fill="currentColor" d="M29.197,80.28c-0.172,0-0.312-0.14-0.312-0.312v-2.521c0-0.173,0.14-0.312,0.312-0.312    c0.172,0,0.312,0.14,0.312,0.312v2.521C29.509,80.141,29.369,80.28,29.197,80.28z" style=""></path></g><g style="" fill="currentColor"><path fill="currentColor" d="M30.47,80.087c-0.171,0-0.311-0.141-0.311-0.312v-2.327c0-0.173,0.14-0.312,0.311-0.312    c0.173,0,0.312,0.14,0.312,0.312v2.327C30.782,79.946,30.643,80.087,30.47,80.087z" style=""></path></g><g style="" fill="currentColor"><path fill="currentColor" d="M31.743,79.858c-0.172,0-0.311-0.139-0.311-0.312v-2.726c0-0.171,0.139-0.312,0.311-0.312    c0.172,0,0.312,0.141,0.312,0.312v2.726C32.055,79.72,31.915,79.858,31.743,79.858z" style=""></path></g></g><g style="" fill="currentColor"><g style="" fill="currentColor"><path fill="currentColor" d="M43.092,75.036c-3.317,0-5.103-0.666-5.213-0.708c-0.089-0.034-0.149-0.121-0.149-0.217v-2.049    c0-0.128,0.104-0.231,0.232-0.231s0.232,0.104,0.232,0.231v1.883c0.781,0.246,4.6,1.269,10.9-0.022v-1.86    c0-0.128,0.104-0.231,0.232-0.231c0.129,0,0.232,0.104,0.232,0.231v2.049c0,0.11-0.077,0.205-0.184,0.227    C46.893,74.861,44.792,75.036,43.092,75.036z" style=""></path></g><g style="" fill="currentColor"><path fill="currentColor" d="M43.646,73.106c-0.989,0-5.916-0.05-5.916-1.044s4.927-1.044,5.916-1.044c0.987,0,5.913,0.05,5.913,1.044    S44.632,73.106,43.646,73.106z M38.243,72.062c0.411,0.254,2.407,0.58,5.402,0.58c2.994,0,4.99-0.326,5.4-0.58    c-0.411-0.254-2.407-0.58-5.4-0.58C40.65,71.482,38.654,71.809,38.243,72.062z" style=""></path></g><g style="" fill="currentColor"><path fill="currentColor" d="M38.721,74.545c-0.112,0-0.203-0.092-0.203-0.203v-1.874c0-0.112,0.091-0.202,0.203-0.202    c0.112,0,0.203,0.09,0.203,0.202v1.874C38.924,74.453,38.833,74.545,38.721,74.545z" style=""></path></g><g style="" fill="currentColor"><path fill="currentColor" d="M39.55,74.594c-0.112,0-0.203-0.091-0.203-0.203V72.7c0-0.113,0.091-0.204,0.203-0.204    s0.203,0.091,0.203,0.204v1.69C39.753,74.503,39.662,74.594,39.55,74.594z" style=""></path></g><g style="" fill="currentColor"><path fill="currentColor" d="M40.378,74.776c-0.112,0-0.203-0.091-0.203-0.202v-1.699c0-0.113,0.091-0.203,0.203-0.203    c0.113,0,0.203,0.09,0.203,0.203v1.699C40.581,74.686,40.491,74.776,40.378,74.776z" style=""></path></g><g style="" fill="currentColor"><path fill="currentColor" d="M41.208,74.776c-0.112,0-0.203-0.091-0.203-0.202v-1.699c0-0.113,0.09-0.203,0.203-0.203    c0.113,0,0.204,0.09,0.204,0.203v1.699C41.412,74.686,41.321,74.776,41.208,74.776z" style=""></path></g><g style="" fill="currentColor"><path fill="currentColor" d="M42.037,74.951c-0.112,0-0.203-0.09-0.203-0.202v-1.874c0-0.113,0.091-0.203,0.203-0.203    c0.111,0,0.203,0.09,0.203,0.203v1.874C42.239,74.861,42.148,74.951,42.037,74.951z" style=""></path></g><g style="" fill="currentColor"><path fill="currentColor" d="M42.866,74.951c-0.112,0-0.203-0.09-0.203-0.202v-1.874c0-0.113,0.091-0.203,0.203-0.203    c0.112,0,0.203,0.09,0.203,0.203v1.874C43.069,74.861,42.979,74.951,42.866,74.951z" style=""></path></g><g style="" fill="currentColor"><path fill="currentColor" d="M43.694,74.951c-0.112,0-0.204-0.09-0.204-0.202v-1.874c0-0.113,0.091-0.203,0.204-0.203    c0.112,0,0.203,0.09,0.203,0.203v1.874C43.897,74.861,43.806,74.951,43.694,74.951z" style=""></path></g><g style="" fill="currentColor"><path fill="currentColor" d="M44.524,74.951c-0.112,0-0.203-0.09-0.203-0.202v-1.874c0-0.113,0.09-0.203,0.203-0.203    c0.112,0,0.203,0.09,0.203,0.203v1.874C44.727,74.861,44.636,74.951,44.524,74.951z" style=""></path></g><g style="" fill="currentColor"><path fill="currentColor" d="M45.354,74.918c-0.112,0-0.204-0.09-0.204-0.202v-1.841c0-0.113,0.091-0.203,0.204-0.203    c0.112,0,0.202,0.09,0.202,0.203v1.841C45.556,74.828,45.465,74.918,45.354,74.918z" style=""></path></g><g style="" fill="currentColor"><path fill="currentColor" d="M46.182,74.776c-0.111,0-0.203-0.091-0.203-0.202v-1.699c0-0.113,0.091-0.203,0.203-0.203    c0.112,0,0.203,0.09,0.203,0.203v1.699C46.385,74.686,46.294,74.776,46.182,74.776z" style=""></path></g><g style="" fill="currentColor"><path fill="currentColor" d="M47.011,74.72c-0.112,0-0.203-0.091-0.203-0.203v-1.642c0-0.113,0.091-0.203,0.203-0.203    c0.112,0,0.204,0.09,0.204,0.203v1.642C47.214,74.629,47.123,74.72,47.011,74.72z" style=""></path></g><g style="" fill="currentColor"><path fill="currentColor" d="M47.84,74.594c-0.112,0-0.203-0.091-0.203-0.203v-1.516c0-0.113,0.091-0.203,0.203-0.203    c0.112,0,0.204,0.09,0.204,0.203v1.516C48.043,74.503,47.952,74.594,47.84,74.594z" style=""></path></g><g style="" fill="currentColor"><path fill="currentColor" d="M48.668,74.446c-0.111,0-0.203-0.092-0.203-0.203v-1.775c0-0.112,0.091-0.202,0.203-0.202    c0.112,0,0.203,0.09,0.203,0.202v1.775C48.872,74.354,48.781,74.446,48.668,74.446z" style=""></path></g></g><g style="" fill="currentColor"><g style="" fill="currentColor"><path fill="currentColor" d="M42.456,84.088c-5.091,0-7.834-1.021-8.003-1.086c-0.138-0.054-0.229-0.185-0.229-0.333v-3.146    c0-0.195,0.159-0.355,0.356-0.355c0.196,0,0.355,0.16,0.355,0.355v2.892c1.198,0.377,7.064,1.947,16.734-0.036v-2.855    c0-0.195,0.159-0.355,0.356-0.355c0.195,0,0.355,0.16,0.355,0.355v3.146c0,0.169-0.118,0.313-0.282,0.347    C48.289,83.818,45.064,84.088,42.456,84.088z" style=""></path></g><g style="" fill="currentColor"><path fill="currentColor" d="M43.304,81.126c-1.517,0-9.08-0.078-9.08-1.604s7.563-1.602,9.08-1.602c1.516,0,9.079,0.076,9.079,1.602    S44.82,81.126,43.304,81.126z M35.012,79.522c0.632,0.39,3.696,0.89,8.292,0.89c4.595,0,7.661-0.5,8.292-0.89    c-0.632-0.388-3.697-0.889-8.292-0.889C38.708,78.634,35.644,79.135,35.012,79.522z" style=""></path></g><g style="" fill="currentColor"><path fill="currentColor" d="M35.745,83.336c-0.172,0-0.312-0.14-0.312-0.312v-2.879c0-0.171,0.14-0.312,0.312-0.312    c0.172,0,0.312,0.141,0.312,0.312v2.879C36.057,83.196,35.917,83.336,35.745,83.336z" style=""></path></g><g style="" fill="currentColor"><path fill="currentColor" d="M37.018,83.408c-0.172,0-0.312-0.139-0.312-0.311v-2.597c0-0.172,0.14-0.312,0.312-0.312    c0.172,0,0.312,0.14,0.312,0.312v2.597C37.329,83.27,37.189,83.408,37.018,83.408z" style=""></path></g><g style="" fill="currentColor"><path fill="currentColor" d="M38.29,83.691c-0.172,0-0.312-0.14-0.312-0.312v-2.611c0-0.173,0.14-0.312,0.312-0.312    c0.171,0,0.312,0.139,0.312,0.312v2.611C38.602,83.552,38.461,83.691,38.29,83.691z" style=""></path></g><g style="" fill="currentColor"><path fill="currentColor" d="M39.562,83.691c-0.171,0-0.311-0.14-0.311-0.312v-2.611c0-0.173,0.14-0.312,0.311-0.312    c0.172,0,0.312,0.139,0.312,0.312v2.611C39.874,83.552,39.734,83.691,39.562,83.691z" style=""></path></g><g style="" fill="currentColor"><path fill="currentColor" d="M40.836,83.959c-0.172,0-0.312-0.139-0.312-0.312v-2.879c0-0.173,0.14-0.312,0.312-0.312    c0.172,0,0.312,0.139,0.312,0.312v2.879C41.147,83.82,41.008,83.959,40.836,83.959z" style=""></path></g><g style="" fill="currentColor"><path fill="currentColor" d="M42.108,83.959c-0.172,0-0.311-0.139-0.311-0.312v-2.879c0-0.173,0.139-0.312,0.311-0.312    c0.173,0,0.312,0.139,0.312,0.312v2.879C42.421,83.82,42.281,83.959,42.108,83.959z" style=""></path></g><g style="" fill="currentColor"><path fill="currentColor" d="M43.381,83.959c-0.172,0-0.312-0.139-0.312-0.312v-2.879c0-0.173,0.14-0.312,0.312-0.312    c0.172,0,0.312,0.139,0.312,0.312v2.879C43.693,83.82,43.554,83.959,43.381,83.959z" style=""></path></g><g style="" fill="currentColor"><path fill="currentColor" d="M44.654,83.959c-0.172,0-0.312-0.139-0.312-0.312v-2.879c0-0.173,0.14-0.312,0.312-0.312    c0.172,0,0.312,0.139,0.312,0.312v2.879C44.966,83.82,44.826,83.959,44.654,83.959z" style=""></path></g><g style="" fill="currentColor"><path fill="currentColor" d="M45.927,83.906c-0.172,0-0.312-0.138-0.312-0.312v-2.826c0-0.173,0.14-0.312,0.312-0.312    s0.312,0.139,0.312,0.312v2.826C46.239,83.769,46.099,83.906,45.927,83.906z" style=""></path></g><g style="" fill="currentColor"><path fill="currentColor" d="M47.201,83.691c-0.172,0-0.312-0.14-0.312-0.312v-2.611c0-0.173,0.14-0.312,0.312-0.312    c0.172,0,0.312,0.139,0.312,0.312v2.611C47.512,83.552,47.373,83.691,47.201,83.691z" style=""></path></g><g style="" fill="currentColor"><path fill="currentColor" d="M48.473,83.604c-0.172,0-0.312-0.14-0.312-0.312v-2.523c0-0.173,0.14-0.312,0.312-0.312    c0.172,0,0.312,0.139,0.312,0.312v2.523C48.785,83.464,48.646,83.604,48.473,83.604z" style=""></path></g><g style="" fill="currentColor"><path fill="currentColor" d="M49.745,83.408c-0.171,0-0.312-0.139-0.312-0.311v-2.329c0-0.173,0.141-0.312,0.312-0.312    c0.173,0,0.312,0.139,0.312,0.312v2.329C50.058,83.27,49.918,83.408,49.745,83.408z" style=""></path></g><g style="" fill="currentColor"><path fill="currentColor" d="M51.018,83.183c-0.172,0-0.312-0.14-0.312-0.311v-2.727c0-0.171,0.14-0.312,0.312-0.312    c0.173,0,0.312,0.141,0.312,0.312v2.727C51.33,83.043,51.19,83.183,51.018,83.183z" style=""></path></g></g><g style="" fill="currentColor"><g style="" fill="currentColor"><path fill="currentColor" d="M59.953,78.99c-3.558,0-5.475-0.715-5.593-0.759c-0.097-0.037-0.158-0.13-0.158-0.232v-2.198    c0-0.138,0.111-0.248,0.248-0.248c0.138,0,0.249,0.11,0.249,0.248v2.02c0.837,0.265,4.937,1.361,11.695-0.023v-1.996    c0-0.138,0.111-0.248,0.248-0.248c0.139,0,0.25,0.11,0.25,0.248v2.198c0,0.117-0.083,0.219-0.199,0.244    C64.032,78.804,61.777,78.99,59.953,78.99z" style=""></path></g><g style="" fill="currentColor"><path fill="currentColor" d="M60.546,76.92c-1.059,0-6.344-0.053-6.344-1.119c0-1.065,5.285-1.119,6.344-1.119    c1.061,0,6.347,0.054,6.347,1.119C66.893,76.867,61.606,76.92,60.546,76.92z M54.751,75.801c0.442,0.271,2.584,0.623,5.795,0.623    c3.212,0,5.354-0.352,5.796-0.623c-0.44-0.271-2.583-0.622-5.796-0.622C57.334,75.179,55.191,75.529,54.751,75.801z" style=""></path></g><g style="" fill="currentColor"><path fill="currentColor" d="M55.264,78.464c-0.121,0-0.217-0.098-0.217-0.218v-2.01c0-0.12,0.096-0.218,0.217-0.218    s0.218,0.098,0.218,0.218v2.01C55.481,78.366,55.385,78.464,55.264,78.464z" style=""></path></g><g style="" fill="currentColor"><path fill="currentColor" d="M56.152,78.516c-0.12,0-0.217-0.097-0.217-0.217v-1.815c0-0.12,0.097-0.217,0.217-0.217    c0.121,0,0.219,0.097,0.219,0.217v1.815C56.371,78.419,56.273,78.516,56.152,78.516z" style=""></path></g><g style="" fill="currentColor"><path fill="currentColor" d="M57.043,78.713c-0.122,0-0.219-0.098-0.219-0.218v-1.823c0-0.119,0.097-0.217,0.219-0.217    c0.119,0,0.216,0.098,0.216,0.217v1.823C57.259,78.615,57.162,78.713,57.043,78.713z" style=""></path></g><g style="" fill="currentColor"><path fill="currentColor" d="M57.932,78.713c-0.12,0-0.217-0.098-0.217-0.218v-1.823c0-0.119,0.097-0.217,0.217-0.217    c0.121,0,0.218,0.098,0.218,0.217v1.823C58.149,78.615,58.053,78.713,57.932,78.713z" style=""></path></g><g style="" fill="currentColor"><path fill="currentColor" d="M58.821,78.901c-0.12,0-0.217-0.098-0.217-0.219v-2.011c0-0.119,0.097-0.217,0.217-0.217    s0.219,0.098,0.219,0.217v2.011C59.04,78.804,58.941,78.901,58.821,78.901z" style=""></path></g><g style="" fill="currentColor"><path fill="currentColor" d="M59.71,78.901c-0.119,0-0.218-0.098-0.218-0.219v-2.011c0-0.119,0.099-0.217,0.218-0.217    c0.121,0,0.219,0.098,0.219,0.217v2.011C59.929,78.804,59.831,78.901,59.71,78.901z" style=""></path></g><g style="" fill="currentColor"><path fill="currentColor" d="M60.601,78.901c-0.12,0-0.219-0.098-0.219-0.219v-2.011c0-0.119,0.099-0.217,0.219-0.217    s0.218,0.098,0.218,0.217v2.011C60.818,78.804,60.721,78.901,60.601,78.901z" style=""></path></g><g style="" fill="currentColor"><path fill="currentColor" d="M61.491,78.901c-0.122,0-0.219-0.098-0.219-0.219v-2.011c0-0.119,0.097-0.217,0.219-0.217    c0.119,0,0.217,0.098,0.217,0.217v2.011C61.708,78.804,61.61,78.901,61.491,78.901z" style=""></path></g><g style="" fill="currentColor"><path fill="currentColor" d="M62.38,78.864c-0.12,0-0.219-0.098-0.219-0.218v-1.975c0-0.119,0.099-0.217,0.219-0.217    s0.216,0.098,0.216,0.217v1.975C62.596,78.767,62.5,78.864,62.38,78.864z" style=""></path></g><g style="" fill="currentColor"><path fill="currentColor" d="M63.27,78.713c-0.121,0-0.218-0.098-0.218-0.218v-1.823c0-0.119,0.097-0.217,0.218-0.217    c0.12,0,0.217,0.098,0.217,0.217v1.823C63.486,78.615,63.39,78.713,63.27,78.713z" style=""></path></g><g style="" fill="currentColor"><path fill="currentColor" d="M64.158,78.652c-0.119,0-0.217-0.098-0.217-0.218v-1.763c0-0.119,0.098-0.217,0.217-0.217    c0.122,0,0.219,0.098,0.219,0.217v1.763C64.377,78.555,64.28,78.652,64.158,78.652z" style=""></path></g><g style="" fill="currentColor"><path fill="currentColor" d="M65.048,78.516c-0.12,0-0.218-0.097-0.218-0.217v-1.627c0-0.119,0.098-0.217,0.218-0.217    c0.121,0,0.218,0.098,0.218,0.217v1.627C65.266,78.419,65.169,78.516,65.048,78.516z" style=""></path></g><g style="" fill="currentColor"><path fill="currentColor" d="M65.937,78.357c-0.12,0-0.216-0.099-0.216-0.218v-1.903c0-0.12,0.096-0.218,0.216-0.218    c0.122,0,0.219,0.098,0.219,0.218v1.903C66.155,78.259,66.059,78.357,65.937,78.357z" style=""></path></g></g></svg>