<svg width="286" height="187" viewBox="0 0 286 187" fill="none" xmlns="http://www.w3.org/2000/svg">
<path d="M0.75 152.75C6.41667 148.25 9 146.167 8.5 146.5C24.8333 133 37.6667 121.917 47 113.25C56.5 104.583 64.5 95.5 71 86C77.5 76.5 80.75 67.25 80.75 58.25C80.75 51.4167 79.1667 46.0833 76 42.25C72.8333 38.4167 68.0833 36.5 61.75 36.5C55.4167 36.5 50.4167 38.9167 46.75 43.75C43.25 48.4167 41.5 55.0833 41.5 63.75H0.25C0.583334 49.5833 3.58333 37.75 9.25 28.25C15.0833 18.75 22.6667 11.75 32 7.24999C41.5 2.74999 52 0.499987 63.5 0.499987C83.3333 0.499987 98.25 5.58332 108.25 15.75C118.417 25.9167 123.5 39.1667 123.5 55.5C123.5 73.3333 117.417 89.9167 105.25 105.25C93.0833 120.417 77.5833 135.25 58.75 149.75H126.25V184.5H0.75V152.75ZM145.072 93.25C145.072 64.5833 150.572 42 161.572 25.5C172.739 8.99999 190.656 0.749984 215.322 0.749984C239.989 0.749984 257.822 8.99999 268.822 25.5C279.989 42 285.572 64.5833 285.572 93.25C285.572 122.25 279.989 145 268.822 161.5C257.822 178 239.989 186.25 215.322 186.25C190.656 186.25 172.739 178 161.572 161.5C150.572 145 145.072 122.25 145.072 93.25ZM243.572 93.25C243.572 76.4167 241.739 63.5 238.072 54.5C234.406 45.3333 226.822 40.75 215.322 40.75C203.822 40.75 196.239 45.3333 192.572 54.5C188.906 63.5 187.072 76.4167 187.072 93.25C187.072 104.583 187.739 114 189.072 121.5C190.406 128.833 193.072 134.833 197.072 139.5C201.239 144 207.322 146.25 215.322 146.25C223.322 146.25 229.322 144 233.322 139.5C237.489 134.833 240.239 128.833 241.572 121.5C242.906 114 243.572 104.583 243.572 93.25Z" fill="#CEE002"/>
</svg>
