<svg width="446" height="446" viewBox="0 0 446 446" fill="none" xmlns="http://www.w3.org/2000/svg">
<circle cx="223" cy="223" r="206.5" stroke="#CEE002" stroke-width="33"/>
<path d="M258.84 273.044C258.84 263.919 256.048 256.885 250.465 251.942C244.964 246.999 234.988 242.008 220.537 236.97C206.086 231.932 194.591 226.323 186.051 220.145C169.712 208.262 161.542 192.768 161.542 173.661C161.542 156.931 167.413 143.148 179.154 132.311C190.978 121.475 206.291 116.056 225.094 116.056C237.574 116.056 248.7 118.718 258.471 124.041C268.241 129.364 275.919 136.969 281.502 146.855C287.085 156.646 289.877 167.53 289.877 179.507H258.84C258.84 168.671 255.884 160.211 249.972 154.127C244.143 147.948 235.768 144.859 224.847 144.859C214.666 144.859 206.743 147.378 201.077 152.416C195.494 157.454 192.702 164.488 192.702 173.519C192.702 181.123 195.74 187.492 201.816 192.625C207.892 197.664 217.909 202.607 231.868 207.454C245.826 212.207 257.034 217.673 265.491 223.852C273.948 229.936 280.147 236.97 284.088 244.955C288.029 252.845 290 262.113 290 272.759C290 290.06 284.252 303.843 272.757 314.109C261.344 324.281 245.826 329.366 226.202 329.366C213.229 329.366 201.282 326.61 190.362 321.096C179.524 315.488 171.067 307.788 164.991 297.997C158.997 288.206 156 276.799 156 263.776H187.16C187.16 275.563 190.526 284.689 197.259 291.153C203.992 297.617 213.64 300.849 226.202 300.849C237.04 300.849 245.169 298.33 250.588 293.292C256.089 288.159 258.84 281.409 258.84 273.044Z" fill="#CEE002"/>
<rect x="207" y="95" width="32" height="29.2958" fill="#CEE002"/>
<rect x="207" y="325.704" width="32" height="29.2958" fill="#CEE002"/>
</svg>
