<svg xmlns="http://www.w3.org/2000/svg" xmlns:xlink="http://www.w3.org/1999/xlink" version="1.1" x="0px" y="0px" viewBox="0 0 100 100" enable-background="new 0 0 100 100" xml:space="preserve" style="max-width:100%" height="100%"><path d="M93.328,27.447L51.773,8.612c-0.852-0.386-1.828-0.386-2.68,0L7.542,27.447c-1.16,0.526-1.905,1.682-1.905,2.956v58.658  c0,1.792,1.453,3.245,3.245,3.245h48.647h18.456h16.003c1.792,0,3.245-1.453,3.245-3.245V30.403  C95.233,29.129,94.488,27.973,93.328,27.447z M60.774,85.815V64.2H72.74v21.615H60.774z M88.743,85.815H79.23v-24.86  c0-1.792-1.453-3.245-3.245-3.245H57.529c-1.792,0-3.245,1.453-3.245,3.245v24.86H12.127V32.495l38.307-17.364l38.31,17.364V85.815z  " style="" fill="#CEE002"></path></svg>