<svg width="2015" height="386" viewBox="0 0 2015 386" fill="none" xmlns="http://www.w3.org/2000/svg">
<path d="M333.82 347H216.59C213.568 347 211.119 344.551 211.119 341.529V5.47098C211.119 3.71254 211.965 2.06116 213.391 1.03267C214.817 0.0049566 216.648 -0.275611 218.32 0.280839L335.55 39.3574C337.783 40.1022 339.29 42.1928 339.29 44.5475V341.529C339.29 344.551 336.841 347 333.82 347ZM222.061 336.059H328.349V48.4904L222.061 13.0612V336.059Z" fill="white"/>
<path d="M75.9143 347H5.57655C2.55515 347 0.105835 344.551 0.105835 341.529V208.669C0.105835 206.507 1.37895 204.548 3.35466 203.67L73.6924 172.409C75.3852 171.657 77.343 171.813 78.8951 172.821C80.448 173.831 81.3851 175.556 81.3851 177.409V341.53C81.3851 344.551 78.9357 347 75.9143 347ZM11.0473 336.059H70.4436V185.826L11.0473 212.223V336.059Z" fill="white"/>
<path d="M216.59 347H146.252C143.231 347 140.781 344.551 140.781 341.529C140.781 338.508 143.231 336.059 146.252 336.059H211.119V13.0612L104.831 48.4904V185.223C104.831 188.244 102.382 190.694 99.3602 190.694C96.3388 190.694 93.8895 188.244 93.8895 185.223V44.5475C93.8895 42.1928 95.3963 40.1022 97.6307 39.3574L214.86 0.280839C216.53 -0.275611 218.362 0.0049566 219.789 1.03267C221.215 2.06116 222.061 3.71254 222.061 5.47098V341.529C222.061 344.551 219.611 347 216.59 347Z" fill="white"/>
<path d="M146.252 347H75.9143C72.8929 347 70.4436 344.551 70.4436 341.529V177.408C70.4436 175.556 71.3807 173.83 72.9336 172.82C74.4857 171.81 76.4442 171.656 78.1362 172.408L148.474 203.67C150.45 204.547 151.723 206.506 151.723 208.668V341.528C151.723 344.551 149.274 347 146.252 347ZM81.385 336.059H140.781V212.224L81.385 185.826V336.059Z" fill="white"/>
<path d="M60.2838 224.3H44.6531V247.746H60.2838V224.3Z" fill="white"/>
<path d="M36.8378 224.3H21.2072V247.746H36.8378V224.3Z" fill="white"/>
<path d="M60.2838 255.561H44.6531V279.007H60.2838V255.561Z" fill="white"/>
<path d="M36.8378 255.561H21.2072V279.007H36.8378V255.561Z" fill="white"/>
<path d="M60.2838 286.822H44.6531V310.268H60.2838V286.822Z" fill="white"/>
<path d="M36.8378 286.822H21.2072V310.268H36.8378V286.822Z" fill="white"/>
<path d="M263.482 52.3628V67.9934L232.221 60.1781V44.5475L263.482 52.3628Z" fill="white"/>
<path d="M310.374 67.9935V83.6242L279.112 75.8088V60.1782L310.374 67.9935Z" fill="white"/>
<path d="M263.482 75.8087V91.4393L232.221 83.624V67.9934L263.482 75.8087Z" fill="white"/>
<path d="M310.374 91.4395V107.07L279.112 99.2548V83.6241L310.374 91.4395Z" fill="white"/>
<path d="M263.482 99.2546V114.885L232.221 107.07V91.4393L263.482 99.2546Z" fill="white"/>
<path d="M310.374 114.885V130.516L279.112 122.701V107.07L310.374 114.885Z" fill="white"/>
<path d="M263.482 122.701V138.331L232.221 130.516V114.885L263.482 122.701Z" fill="white"/>
<path d="M310.374 138.331V153.962L279.112 146.147V130.516L310.374 138.331Z" fill="white"/>
<path d="M263.482 146.146V161.777L232.221 153.962V138.331L263.482 146.146Z" fill="white"/>
<path d="M310.374 161.777V177.408L279.112 169.593V153.962L310.374 161.777Z" fill="white"/>
<path d="M263.482 169.592V185.223L232.221 177.408V161.777L263.482 169.592Z" fill="white"/>
<path d="M310.374 185.223V200.854L279.112 193.038V177.408L310.374 185.223Z" fill="white"/>
<path d="M263.482 193.038V208.669L232.221 200.854V185.223L263.482 193.038Z" fill="white"/>
<path d="M310.374 208.669V224.3L279.112 216.484V200.854L310.374 208.669Z" fill="white"/>
<path d="M263.482 216.484V232.115L232.221 224.3V208.669L263.482 216.484Z" fill="white"/>
<path d="M310.374 232.115V247.746L279.112 239.93V224.3L310.374 232.115Z" fill="white"/>
<path d="M169.698 52.3628V67.9934L200.959 60.1781V44.5475L169.698 52.3628Z" fill="white"/>
<path d="M169.698 75.8087V91.4393L200.959 83.624V67.9934L169.698 75.8087Z" fill="white"/>
<path d="M169.698 99.2546V114.885L200.959 107.07V91.4393L169.698 99.2546Z" fill="white"/>
<path d="M169.698 122.701V138.331L200.959 130.516V114.885L169.698 122.701Z" fill="white"/>
<path d="M169.698 146.146V161.777L200.959 153.962V138.331L169.698 146.146Z" fill="white"/>
<path d="M169.698 169.592V185.223L200.959 177.408V161.777L169.698 169.592Z" fill="white"/>
<path d="M169.698 193.038V208.669L200.959 200.854V185.223L169.698 193.038Z" fill="white"/>
<path d="M169.698 216.484V232.115L200.959 224.3V208.669L169.698 216.484Z" fill="white"/>
<path d="M130.622 224.3H114.991V247.746H130.622V224.3Z" fill="white"/>
<path d="M107.176 224.3H91.5449V247.746H107.176V224.3Z" fill="white"/>
<path d="M130.622 255.561H114.991V279.007H130.622V255.561Z" fill="white"/>
<path d="M107.176 255.561H91.5449V279.007H107.176V255.561Z" fill="white"/>
<path d="M130.622 286.822H114.991V310.268H130.622V286.822Z" fill="white"/>
<path d="M107.176 286.822H91.5449V310.268H107.176V286.822Z" fill="white"/>
<path d="M122.806 67.9935V83.6242L154.067 75.8088V60.1782L122.806 67.9935Z" fill="white"/>
<path d="M122.806 91.4395V107.07L154.067 99.2548V83.6241L122.806 91.4395Z" fill="white"/>
<path d="M122.806 114.885V130.516L154.067 122.701V107.07L122.806 114.885Z" fill="white"/>
<path d="M122.806 138.331V153.962L154.067 146.147V130.516L122.806 138.331Z" fill="white"/>
<path d="M501.68 153.2H568.12V184H459V155.4L525 60.36H459V29.56H568.12V58.16L501.68 153.2ZM633.615 59.7V90.94H683.995V119.98H633.615V153.86H690.595V184H595.995V29.56H690.595V59.7H633.615ZM856.478 184H818.858L755.938 88.74V184H718.318V29.56H755.938L818.858 125.26V29.56H856.478V184Z" fill="#CEE002"/>
<path d="M930.589 106.56C930.589 91.3067 933.889 77.74 940.489 65.86C947.089 53.8333 956.256 44.52 967.989 37.92C979.869 31.1733 993.289 27.8 1008.25 27.8C1026.58 27.8 1042.28 32.64 1055.33 42.32C1068.38 52 1077.11 65.2 1081.51 81.92H1040.15C1037.07 75.4667 1032.67 70.5533 1026.95 67.18C1021.38 63.8067 1015 62.12 1007.81 62.12C996.222 62.12 986.836 66.1533 979.649 74.22C972.462 82.2867 968.869 93.0667 968.869 106.56C968.869 120.053 972.462 130.833 979.649 138.9C986.836 146.967 996.222 151 1007.81 151C1015 151 1021.38 149.313 1026.95 145.94C1032.67 142.567 1037.07 137.653 1040.15 131.2H1081.51C1077.11 147.92 1068.38 161.12 1055.33 170.8C1042.28 180.333 1026.58 185.1 1008.25 185.1C993.289 185.1 979.869 181.8 967.989 175.2C956.256 168.453 947.089 159.14 940.489 147.26C933.889 135.38 930.589 121.813 930.589 106.56ZM1163.73 185.76C1151.7 185.76 1140.85 183.193 1131.17 178.06C1121.63 172.927 1114.08 165.593 1108.51 156.06C1103.08 146.527 1100.37 135.38 1100.37 122.62C1100.37 110.007 1103.15 98.9333 1108.73 89.4C1114.3 79.72 1121.93 72.3133 1131.61 67.18C1141.29 62.0467 1152.14 59.48 1164.17 59.48C1176.19 59.48 1187.05 62.0467 1196.73 67.18C1206.41 72.3133 1214.03 79.72 1219.61 89.4C1225.18 98.9333 1227.97 110.007 1227.97 122.62C1227.97 135.233 1225.11 146.38 1219.39 156.06C1213.81 165.593 1206.11 172.927 1196.29 178.06C1186.61 183.193 1175.75 185.76 1163.73 185.76ZM1163.73 153.2C1170.91 153.2 1177 150.56 1181.99 145.28C1187.12 140 1189.69 132.447 1189.69 122.62C1189.69 112.793 1187.19 105.24 1182.21 99.96C1177.37 94.68 1171.35 92.04 1164.17 92.04C1156.83 92.04 1150.75 94.68 1145.91 99.96C1141.07 105.093 1138.65 112.647 1138.65 122.62C1138.65 132.447 1140.99 140 1145.69 145.28C1150.53 150.56 1156.54 153.2 1163.73 153.2ZM1319.65 152.1V184H1300.51C1286.87 184 1276.23 180.7 1268.61 174.1C1260.98 167.353 1257.17 156.427 1257.17 141.32V92.48H1242.21V61.24H1257.17V31.32H1294.79V61.24H1319.43V92.48H1294.79V141.76C1294.79 145.427 1295.67 148.067 1297.43 149.68C1299.19 151.293 1302.12 152.1 1306.23 152.1H1319.65ZM1412.32 152.1V184H1393.18C1379.54 184 1368.91 180.7 1361.28 174.1C1353.65 167.353 1349.84 156.427 1349.84 141.32V92.48H1334.88V61.24H1349.84V31.32H1387.46V61.24H1412.1V92.48H1387.46V141.76C1387.46 145.427 1388.34 148.067 1390.1 149.68C1391.86 151.293 1394.79 152.1 1398.9 152.1H1412.32ZM1429.1 122.4C1429.1 109.787 1431.44 98.7133 1436.14 89.18C1440.98 79.6467 1447.5 72.3133 1455.72 67.18C1463.93 62.0467 1473.1 59.48 1483.22 59.48C1491.87 59.48 1499.42 61.24 1505.88 64.76C1512.48 68.28 1517.54 72.9 1521.06 78.62V61.24H1558.68V184H1521.06V166.62C1517.39 172.34 1512.26 176.96 1505.66 180.48C1499.2 184 1491.65 185.76 1483 185.76C1473.02 185.76 1463.93 183.193 1455.72 178.06C1447.5 172.78 1440.98 165.373 1436.14 155.84C1431.44 146.16 1429.1 135.013 1429.1 122.4ZM1521.06 122.62C1521.06 113.233 1518.42 105.827 1513.14 100.4C1508 94.9733 1501.7 92.26 1494.22 92.26C1486.74 92.26 1480.36 94.9733 1475.08 100.4C1469.94 105.68 1467.38 113.013 1467.38 122.4C1467.38 131.787 1469.94 139.267 1475.08 144.84C1480.36 150.267 1486.74 152.98 1494.22 152.98C1501.7 152.98 1508 150.267 1513.14 144.84C1518.42 139.413 1521.06 132.007 1521.06 122.62ZM1635.83 59.48C1644.48 59.48 1652.04 61.24 1658.49 64.76C1665.09 68.28 1670.15 72.9 1673.67 78.62V61.24H1711.29V183.78C1711.29 195.073 1709.02 205.267 1704.47 214.36C1700.07 223.6 1693.25 230.933 1684.01 236.36C1674.92 241.787 1663.55 244.5 1649.91 244.5C1631.72 244.5 1616.98 240.173 1605.69 231.52C1594.4 223.013 1587.94 211.427 1586.33 196.76H1623.51C1624.68 201.453 1627.47 205.12 1631.87 207.76C1636.27 210.547 1641.7 211.94 1648.15 211.94C1655.92 211.94 1662.08 209.667 1666.63 205.12C1671.32 200.72 1673.67 193.607 1673.67 183.78V166.4C1670 172.12 1664.94 176.813 1658.49 180.48C1652.04 184 1644.48 185.76 1635.83 185.76C1625.71 185.76 1616.54 183.193 1608.33 178.06C1600.12 172.78 1593.59 165.373 1588.75 155.84C1584.06 146.16 1581.71 135.013 1581.71 122.4C1581.71 109.787 1584.06 98.7133 1588.75 89.18C1593.59 79.6467 1600.12 72.3133 1608.33 67.18C1616.54 62.0467 1625.71 59.48 1635.83 59.48ZM1673.67 122.62C1673.67 113.233 1671.03 105.827 1665.75 100.4C1660.62 94.9733 1654.31 92.26 1646.83 92.26C1639.35 92.26 1632.97 94.9733 1627.69 100.4C1622.56 105.68 1619.99 113.013 1619.99 122.4C1619.99 131.787 1622.56 139.267 1627.69 144.84C1632.97 150.267 1639.35 152.98 1646.83 152.98C1654.31 152.98 1660.62 150.267 1665.75 144.84C1671.03 139.413 1673.67 132.007 1673.67 122.62ZM1857.53 120.64C1857.53 124.16 1857.31 127.827 1856.87 131.64H1771.73C1772.31 139.267 1774.73 145.133 1778.99 149.24C1783.39 153.2 1788.74 155.18 1795.05 155.18C1804.43 155.18 1810.96 151.22 1814.63 143.3H1854.67C1852.61 151.367 1848.87 158.627 1843.45 165.08C1838.17 171.533 1831.49 176.593 1823.43 180.26C1815.36 183.927 1806.34 185.76 1796.37 185.76C1784.34 185.76 1773.63 183.193 1764.25 178.06C1754.86 172.927 1747.53 165.593 1742.25 156.06C1736.97 146.527 1734.33 135.38 1734.33 122.62C1734.33 109.86 1736.89 98.7133 1742.03 89.18C1747.31 79.6467 1754.64 72.3133 1764.03 67.18C1773.41 62.0467 1784.19 59.48 1796.37 59.48C1808.25 59.48 1818.81 61.9733 1828.05 66.96C1837.29 71.9467 1844.47 79.06 1849.61 88.3C1854.89 97.54 1857.53 108.32 1857.53 120.64ZM1819.03 110.74C1819.03 104.287 1816.83 99.1533 1812.43 95.34C1808.03 91.5267 1802.53 89.62 1795.93 89.62C1789.62 89.62 1784.27 91.4533 1779.87 95.12C1775.61 98.7867 1772.97 103.993 1771.95 110.74H1819.03ZM1930.61 185.76C1919.91 185.76 1910.37 183.927 1902.01 180.26C1893.65 176.593 1887.05 171.607 1882.21 165.3C1877.37 158.847 1874.66 151.66 1874.07 143.74H1911.25C1911.69 147.993 1913.67 151.44 1917.19 154.08C1920.71 156.72 1925.04 158.04 1930.17 158.04C1934.87 158.04 1938.46 157.16 1940.95 155.4C1943.59 153.493 1944.91 151.073 1944.91 148.14C1944.91 144.62 1943.08 142.053 1939.41 140.44C1935.75 138.68 1929.81 136.773 1921.59 134.72C1912.79 132.667 1905.46 130.54 1899.59 128.34C1893.73 125.993 1888.67 122.4 1884.41 117.56C1880.16 112.573 1878.03 105.9 1878.03 97.54C1878.03 90.5 1879.94 84.12 1883.75 78.4C1887.71 72.5333 1893.43 67.9133 1900.91 64.54C1908.54 61.1667 1917.56 59.48 1927.97 59.48C1943.37 59.48 1955.47 63.2933 1964.27 70.92C1973.22 78.5467 1978.35 88.6667 1979.67 101.28H1944.91C1944.33 97.0267 1942.42 93.6533 1939.19 91.16C1936.11 88.6667 1932.01 87.42 1926.87 87.42C1922.47 87.42 1919.1 88.3 1916.75 90.06C1914.41 91.6733 1913.23 93.9467 1913.23 96.88C1913.23 100.4 1915.07 103.04 1918.73 104.8C1922.55 106.56 1928.41 108.32 1936.33 110.08C1945.43 112.427 1952.83 114.773 1958.55 117.12C1964.27 119.32 1969.26 122.987 1973.51 128.12C1977.91 133.107 1980.19 139.853 1980.33 148.36C1980.33 155.547 1978.28 162 1974.17 167.72C1970.21 173.293 1964.42 177.693 1956.79 180.92C1949.31 184.147 1940.59 185.76 1930.61 185.76Z" fill="white"/>
<path d="M527.87 298L511.84 347H499.66L488.88 313.82L477.75 347H465.64L449.54 298H461.3L472.36 332.44L483.91 298H494.41L505.61 332.72L517.02 298H527.87ZM579.841 337.9V347H541.901V298H578.931V307.1H553.171V317.74H575.921V326.56H553.171V337.9H579.841ZM647.538 347.84C642.544 347.84 638.018 346.767 633.958 344.62C629.944 342.427 626.771 339.417 624.438 335.59C622.151 331.717 621.008 327.353 621.008 322.5C621.008 317.647 622.151 313.307 624.438 309.48C626.771 305.607 629.944 302.597 633.958 300.45C638.018 298.257 642.568 297.16 647.608 297.16C651.854 297.16 655.681 297.907 659.088 299.4C662.541 300.893 665.434 303.04 667.768 305.84L660.488 312.56C657.174 308.733 653.068 306.82 648.168 306.82C645.134 306.82 642.428 307.497 640.048 308.85C637.668 310.157 635.801 312 634.448 314.38C633.141 316.76 632.488 319.467 632.488 322.5C632.488 325.533 633.141 328.24 634.448 330.62C635.801 333 637.668 334.867 640.048 336.22C642.428 337.527 645.134 338.18 648.168 338.18C653.068 338.18 657.174 336.243 660.488 332.37L667.768 339.09C665.434 341.937 662.541 344.107 659.088 345.6C655.634 347.093 651.784 347.84 647.538 347.84ZM714.439 336.5H691.689L687.349 347H675.729L697.569 298H708.769L730.679 347H718.779L714.439 336.5ZM710.869 327.89L703.099 309.13L695.329 327.89H710.869ZM788.402 298V347H779.092L754.662 317.25V347H743.462V298H752.842L777.202 327.75V298H788.402ZM871.2 321.52C874 322.407 876.193 323.9 877.78 326C879.366 328.053 880.16 330.597 880.16 333.63C880.16 337.923 878.48 341.237 875.12 343.57C871.806 345.857 866.953 347 860.56 347H835.22V298H859.16C865.133 298 869.706 299.143 872.88 301.43C876.1 303.717 877.71 306.82 877.71 310.74C877.71 313.12 877.126 315.243 875.96 317.11C874.84 318.977 873.253 320.447 871.2 321.52ZM846.49 306.54V318.09H857.76C860.56 318.09 862.683 317.6 864.13 316.62C865.576 315.64 866.3 314.193 866.3 312.28C866.3 310.367 865.576 308.943 864.13 308.01C862.683 307.03 860.56 306.54 857.76 306.54H846.49ZM859.72 338.46C862.706 338.46 864.946 337.97 866.44 336.99C867.98 336.01 868.75 334.493 868.75 332.44C868.75 328.38 865.74 326.35 859.72 326.35H846.49V338.46H859.72ZM918.215 347.84C911.215 347.84 905.755 345.903 901.835 342.03C897.962 338.157 896.025 332.627 896.025 325.44V298H907.365V325.02C907.365 333.793 911.005 338.18 918.285 338.18C921.832 338.18 924.538 337.13 926.405 335.03C928.272 332.883 929.205 329.547 929.205 325.02V298H940.405V325.44C940.405 332.627 938.445 338.157 934.525 342.03C930.652 345.903 925.215 347.84 918.215 347.84ZM959.311 298H970.651V347H959.311V298ZM989.98 298H1001.32V337.76H1025.89V347H989.98V298ZM1039.93 298H1062.19C1067.51 298 1072.2 299.027 1076.26 301.08C1080.36 303.087 1083.54 305.933 1085.78 309.62C1088.06 313.307 1089.21 317.6 1089.21 322.5C1089.21 327.4 1088.06 331.693 1085.78 335.38C1083.54 339.067 1080.36 341.937 1076.26 343.99C1072.2 345.997 1067.51 347 1062.19 347H1039.93V298ZM1061.63 337.69C1066.53 337.69 1070.42 336.337 1073.32 333.63C1076.26 330.877 1077.73 327.167 1077.73 322.5C1077.73 317.833 1076.26 314.147 1073.32 311.44C1070.42 308.687 1066.53 307.31 1061.63 307.31H1051.27V337.69H1061.63ZM1156.5 329.64V347H1145.16V329.5L1126.19 298H1138.23L1151.32 319.77L1164.41 298H1175.54L1156.5 329.64ZM1209.6 347.84C1204.51 347.84 1199.91 346.743 1195.81 344.55C1191.75 342.357 1188.55 339.347 1186.22 335.52C1183.93 331.647 1182.79 327.307 1182.79 322.5C1182.79 317.693 1183.93 313.377 1186.22 309.55C1188.55 305.677 1191.75 302.643 1195.81 300.45C1199.91 298.257 1204.51 297.16 1209.6 297.16C1214.68 297.16 1219.26 298.257 1223.32 300.45C1227.38 302.643 1230.57 305.677 1232.91 309.55C1235.24 313.377 1236.41 317.693 1236.41 322.5C1236.41 327.307 1235.24 331.647 1232.91 335.52C1230.57 339.347 1227.38 342.357 1223.32 344.55C1219.26 346.743 1214.68 347.84 1209.6 347.84ZM1209.6 338.18C1212.49 338.18 1215.1 337.527 1217.44 336.22C1219.77 334.867 1221.59 333 1222.9 330.62C1224.25 328.24 1224.93 325.533 1224.93 322.5C1224.93 319.467 1224.25 316.76 1222.9 314.38C1221.59 312 1219.77 310.157 1217.44 308.85C1215.1 307.497 1212.49 306.82 1209.6 306.82C1206.7 306.82 1204.09 307.497 1201.76 308.85C1199.42 310.157 1197.58 312 1196.23 314.38C1194.92 316.76 1194.27 319.467 1194.27 322.5C1194.27 325.533 1194.92 328.24 1196.23 330.62C1197.58 333 1199.42 334.867 1201.76 336.22C1204.09 337.527 1206.7 338.18 1209.6 338.18ZM1274.4 347.84C1267.4 347.84 1261.94 345.903 1258.02 342.03C1254.15 338.157 1252.21 332.627 1252.21 325.44V298H1263.55V325.02C1263.55 333.793 1267.19 338.18 1274.47 338.18C1278.02 338.18 1280.72 337.13 1282.59 335.03C1284.46 332.883 1285.39 329.547 1285.39 325.02V298H1296.59V325.44C1296.59 332.627 1294.63 338.157 1290.71 342.03C1286.84 345.903 1281.4 347.84 1274.4 347.84ZM1346.72 347L1337.27 333.35H1336.71H1326.84V347H1315.5V298H1336.71C1341.05 298 1344.8 298.723 1347.98 300.17C1351.2 301.617 1353.67 303.67 1355.4 306.33C1357.12 308.99 1357.99 312.14 1357.99 315.78C1357.99 319.42 1357.1 322.57 1355.33 325.23C1353.6 327.843 1351.13 329.85 1347.91 331.25L1358.9 347H1346.72ZM1346.51 315.78C1346.51 313.027 1345.62 310.927 1343.85 309.48C1342.07 307.987 1339.48 307.24 1336.08 307.24H1326.84V324.32H1336.08C1339.48 324.32 1342.07 323.573 1343.85 322.08C1345.62 320.587 1346.51 318.487 1346.51 315.78ZM1402.2 298H1424.46C1429.78 298 1434.47 299.027 1438.53 301.08C1442.63 303.087 1445.81 305.933 1448.05 309.62C1450.33 313.307 1451.48 317.6 1451.48 322.5C1451.48 327.4 1450.33 331.693 1448.05 335.38C1445.81 339.067 1442.63 341.937 1438.53 343.99C1434.47 345.997 1429.78 347 1424.46 347H1402.2V298ZM1423.9 337.69C1428.8 337.69 1432.69 336.337 1435.59 333.63C1438.53 330.877 1440 327.167 1440 322.5C1440 317.833 1438.53 314.147 1435.59 311.44C1432.69 308.687 1428.8 307.31 1423.9 307.31H1413.54V337.69H1423.9ZM1498.95 347L1489.5 333.35H1488.94H1479.07V347H1467.73V298H1488.94C1493.28 298 1497.03 298.723 1500.21 300.17C1503.43 301.617 1505.9 303.67 1507.63 306.33C1509.35 308.99 1510.22 312.14 1510.22 315.78C1510.22 319.42 1509.33 322.57 1507.56 325.23C1505.83 327.843 1503.36 329.85 1500.14 331.25L1511.13 347H1498.95ZM1498.74 315.78C1498.74 313.027 1497.85 310.927 1496.08 309.48C1494.3 307.987 1491.71 307.24 1488.31 307.24H1479.07V324.32H1488.31C1491.71 324.32 1494.3 323.573 1496.08 322.08C1497.85 320.587 1498.74 318.487 1498.74 315.78ZM1564.84 337.9V347H1526.9V298H1563.93V307.1H1538.17V317.74H1560.92V326.56H1538.17V337.9H1564.84ZM1613.83 336.5H1591.08L1586.74 347H1575.12L1596.96 298H1608.16L1630.07 347H1618.17L1613.83 336.5ZM1610.26 327.89L1602.49 309.13L1594.72 327.89H1610.26ZM1687.45 347L1687.38 317.6L1672.96 341.82H1667.85L1653.5 318.23V347H1642.86V298H1652.24L1670.58 328.45L1688.64 298H1697.95L1698.09 347H1687.45ZM1789.88 298V347H1778.54V326.91H1756.28V347H1744.94V298H1756.28V317.32H1778.54V298H1789.88ZM1832.9 347.84C1827.81 347.84 1823.22 346.743 1819.11 344.55C1815.05 342.357 1811.85 339.347 1809.52 335.52C1807.23 331.647 1806.09 327.307 1806.09 322.5C1806.09 317.693 1807.23 313.377 1809.52 309.55C1811.85 305.677 1815.05 302.643 1819.11 300.45C1823.22 298.257 1827.81 297.16 1832.9 297.16C1837.99 297.16 1842.56 298.257 1846.62 300.45C1850.68 302.643 1853.88 305.677 1856.21 309.55C1858.54 313.377 1859.71 317.693 1859.71 322.5C1859.71 327.307 1858.54 331.647 1856.21 335.52C1853.88 339.347 1850.68 342.357 1846.62 344.55C1842.56 346.743 1837.99 347.84 1832.9 347.84ZM1832.9 338.18C1835.79 338.18 1838.41 337.527 1840.74 336.22C1843.07 334.867 1844.89 333 1846.2 330.62C1847.55 328.24 1848.23 325.533 1848.23 322.5C1848.23 319.467 1847.55 316.76 1846.2 314.38C1844.89 312 1843.07 310.157 1840.74 308.85C1838.41 307.497 1835.79 306.82 1832.9 306.82C1830.01 306.82 1827.39 307.497 1825.06 308.85C1822.73 310.157 1820.88 312 1819.53 314.38C1818.22 316.76 1817.57 319.467 1817.57 322.5C1817.57 325.533 1818.22 328.24 1819.53 330.62C1820.88 333 1822.73 334.867 1825.06 336.22C1827.39 337.527 1830.01 338.18 1832.9 338.18ZM1920.52 347L1920.45 317.6L1906.03 341.82H1900.92L1886.57 318.23V347H1875.93V298H1885.31L1903.65 328.45L1921.71 298H1931.02L1931.16 347H1920.52ZM1988.43 337.9V347H1950.49V298H1987.52V307.1H1961.76V317.74H1984.51V326.56H1961.76V337.9H1988.43Z" fill="white" fill-opacity="0.42"/>
</svg>
